<svg width="84" height="84" viewBox="0 0 84 84" fill="none" xmlns="http://www.w3.org/2000/svg">
<path d="M37.8333 46.1668V58.6668C37.8333 59.8474 38.2333 60.8377 39.0333 61.6377C39.8333 62.4377 40.8222 62.8363 42 62.8335C43.1806 62.8335 44.1708 62.4335 44.9708 61.6335C45.7708 60.8335 46.1694 59.8446 46.1667 58.6668V46.1668H58.6667C59.8472 46.1668 60.8375 45.7668 61.6375 44.9668C62.4375 44.1668 62.8361 43.1779 62.8333 42.0002C62.8333 40.8196 62.4333 39.8293 61.6333 39.0293C60.8333 38.2293 59.8444 37.8307 58.6667 37.8335H46.1667V25.3335C46.1667 24.1529 45.7667 23.1627 44.9667 22.3627C44.1667 21.5627 43.1778 21.1641 42 21.1668C40.8194 21.1668 39.8292 21.5668 39.0292 22.3668C38.2292 23.1668 37.8306 24.1557 37.8333 25.3335V37.8335H25.3333C24.1528 37.8335 23.1625 38.2335 22.3625 39.0335C21.5625 39.8335 21.1639 40.8224 21.1667 42.0002C21.1667 43.1807 21.5667 44.171 22.3667 44.971C23.1667 45.771 24.1556 46.1696 25.3333 46.1668H37.8333ZM42 83.6668C36.2361 83.6668 30.8194 82.5724 25.75 80.3835C20.6806 78.1946 16.2708 75.2266 12.5208 71.4793C8.77083 67.7293 5.80277 63.3196 3.61666 58.2502C1.43055 53.1807 0.336106 47.7641 0.333328 42.0002C0.333328 36.2363 1.42777 30.8196 3.61666 25.7502C5.80555 20.6807 8.77361 16.271 12.5208 12.521C16.2708 8.771 20.6806 5.80294 25.75 3.61683C30.8194 1.43072 36.2361 0.336274 42 0.333496C47.7639 0.333496 53.1806 1.42794 58.25 3.61683C63.3194 5.80572 67.7292 8.77378 71.4792 12.521C75.2292 16.271 78.1986 20.6807 80.3875 25.7502C82.5764 30.8196 83.6694 36.2363 83.6667 42.0002C83.6667 47.7641 82.5722 53.1807 80.3833 58.2502C78.1944 63.3196 75.2264 67.7293 71.4792 71.4793C67.7292 75.2293 63.3194 78.1988 58.25 80.3877C53.1806 82.5766 47.7639 83.6696 42 83.6668Z" fill="#8D8D8D"/>
</svg>
